<svg xmlns="http://www.w3.org/2000/svg" viewBox="0 0 292 292"><defs><style>.cls-1,.cls-3{fill:#fff;}.cls-2{fill:#b3b3b3;opacity:0.54;}.cls-2,.cls-3,.cls-4{stroke:#000;stroke-miterlimit:10;}.cls-2,.cls-3{stroke-width:7px;}.cls-4{fill:none;stroke-width:10px;}</style></defs><g id="Layer_2" data-name="Layer 2"><g id="Layer_3" data-name="Layer 3"><circle class="cls-1" cx="147.08" cy="145.51" r="141"/><path class="cls-2" d="M287.61,141c.16,5.85-1.21,23.36-1.21,23.36l-278.58-39a148.47,148.47,0,0,0-1.49,22.53c.08,11.89,1.76,26.74,3.49,33.42a154.66,154.66,0,0,0,11.49,28.81A181.62,181.62,0,0,0,35.7,232.67L259.16,62.31s10.36,12.41,12.73,17.11c3.64,7.21,9.67,22.93,11.43,30.22C285,116.78,287.4,133.07,287.61,141Z"/><path class="cls-2" d="M65.31,260.25,228.67,31.44s-14.18-9.28-19.2-11.85c-4.31-2.2-17.88-7.41-17.88-7.41l-89.2,267.33S88,273.94,83.47,271.59C78.71,269.13,65.31,260.25,65.31,260.25Z"/><circle class="cls-3" cx="147.55" cy="145.47" r="31.71"/><circle class="cls-4" cx="146" cy="146" r="141"/></g></g></svg>